<svg width="48" height="48" viewBox="0 0 48 48" fill="none" xmlns="http://www.w3.org/2000/svg">
<g clip-path="url(#clip0)">
<path d="M29.1416 13.624H41.1395V17.0693H29.1416V13.624Z" fill="white"/>
<path d="M29.1416 22.2373H41.1395V25.6826H29.1416V22.2373Z" fill="white"/>
<path d="M29.1416 30.8506H41.1395V34.2959H29.1416V30.8506Z" fill="white"/>
<path d="M44.5635 5H3.42796C2.51909 5.00091 1.6477 5.36419 1.00503 6.01012C0.362358 6.65604 0.000907512 7.53184 0 8.44532V39.4532C0.000907512 40.3667 0.362358 41.2425 1.00503 41.8884C1.6477 42.5343 2.51909 42.8976 3.42796 42.8985H44.5635C45.4722 42.8971 46.3433 42.5337 46.9859 41.8879C47.6285 41.2421 47.9901 40.3665 47.9914 39.4532V8.44532C47.9905 7.53184 47.6291 6.65604 46.9864 6.01012C46.3437 5.36419 45.4724 5.00091 44.5635 5ZM3.42796 8.44532H22.2817V39.4532H3.42796V8.44532ZM25.7097 39.4532V8.44532H44.5635L44.5669 39.4532H25.7097Z" fill="white"/>
</g>
<defs>
<clipPath id="clip0">
<rect width="48" height="37.92" fill="white" transform="translate(0 5)"/>
</clipPath>
</defs>
</svg>
